<svg width="50" height="50" viewBox="0 0 50 50" fill="none" xmlns="http://www.w3.org/2000/svg">
<path d="M43.75 12.5H34.375V10.9375C34.375 9.6943 33.8811 8.50201 33.0021 7.62294C32.123 6.74386 30.9307 6.25 29.6875 6.25H20.3125C19.0693 6.25 17.877 6.74386 16.9979 7.62294C16.1189 8.50201 15.625 9.6943 15.625 10.9375V12.5H6.25C5.4212 12.5 4.62634 12.8292 4.04029 13.4153C3.45424 14.0013 3.125 14.7962 3.125 15.625V37.5C3.125 38.3288 3.45424 39.1237 4.04029 39.7097C4.62634 40.2958 5.4212 40.625 6.25 40.625H43.75C44.5788 40.625 45.3737 40.2958 45.9597 39.7097C46.5458 39.1237 46.875 38.3288 46.875 37.5V15.625C46.875 14.7962 46.5458 14.0013 45.9597 13.4153C45.3737 12.8292 44.5788 12.5 43.75 12.5ZM18.75 10.9375C18.75 10.5231 18.9146 10.1257 19.2076 9.83265C19.5007 9.53962 19.8981 9.375 20.3125 9.375H29.6875C30.1019 9.375 30.4993 9.53962 30.7924 9.83265C31.0854 10.1257 31.25 10.5231 31.25 10.9375V12.5H18.75V10.9375ZM43.75 15.625V21.875H37.5V20.3125C37.5 19.8981 37.3354 19.5007 37.0424 19.2076C36.7493 18.9146 36.3519 18.75 35.9375 18.75C35.5231 18.75 35.1257 18.9146 34.8326 19.2076C34.5396 19.5007 34.375 19.8981 34.375 20.3125V21.875H15.625V20.3125C15.625 19.8981 15.4604 19.5007 15.1674 19.2076C14.8743 18.9146 14.4769 18.75 14.0625 18.75C13.6481 18.75 13.2507 18.9146 12.9576 19.2076C12.6646 19.5007 12.5 19.8981 12.5 20.3125V21.875H6.25V15.625H43.75ZM43.75 37.5H6.25V25H12.5V26.5625C12.5 26.9769 12.6646 27.3743 12.9576 27.6674C13.2507 27.9604 13.6481 28.125 14.0625 28.125C14.4769 28.125 14.8743 27.9604 15.1674 27.6674C15.4604 27.3743 15.625 26.9769 15.625 26.5625V25H34.375V26.5625C34.375 26.9769 34.5396 27.3743 34.8326 27.6674C35.1257 27.9604 35.5231 28.125 35.9375 28.125C36.3519 28.125 36.7493 27.9604 37.0424 27.6674C37.3354 27.3743 37.5 26.9769 37.5 26.5625V25H43.75V37.5Z" fill="black"/>
</svg>
