<svg xmlns="http://www.w3.org/2000/svg" xmlns:xlink="http://www.w3.org/1999/xlink" width="500" zoomAndPan="magnify" viewBox="0 0 375 374.999991" height="500" preserveAspectRatio="xMidYMid meet" version="1.0"><defs><clipPath id="503e0c64a8"><path d="M 15.519531 185 L 72 185 L 72 237 L 15.519531 237 Z M 15.519531 185 " clip-rule="nonzero"/></clipPath><clipPath id="d3aaeb6952"><path d="M 15.519531 185 L 72 185 L 72 237.058594 L 15.519531 237.058594 Z M 15.519531 185 " clip-rule="nonzero"/></clipPath><clipPath id="9d6b5e79cd"><path d="M 308 139 L 359.769531 139 L 359.769531 187 L 308 187 Z M 308 139 " clip-rule="nonzero"/></clipPath><clipPath id="befa2591a6"><path d="M 32 138.058594 L 73 138.058594 L 73 157 L 32 157 Z M 32 138.058594 " clip-rule="nonzero"/></clipPath></defs><path fill="#434242" d="M 214.339844 156.992188 C 214.339844 156.433594 214.460938 153.832031 214.257812 153.550781 L 210.898438 153.550781 L 210.898438 150.148438 L 214.257812 150.148438 C 214.460938 149.828125 214.339844 147.265625 214.339844 146.703125 L 217.699219 146.703125 C 217.859375 146.425781 217.742188 143.902344 217.742188 143.34375 C 217.742188 142.78125 217.859375 140.257812 217.699219 139.980469 L 214.339844 139.980469 C 214.179688 140.097656 214.257812 142.863281 214.257812 143.261719 C 214.257812 144.421875 214.257812 145.582031 214.257812 146.703125 L 210.898438 146.703125 L 210.898438 150.148438 L 207.535156 150.105469 L 207.535156 146.703125 L 204.175781 146.703125 C 204.175781 145.582031 204.175781 144.460938 204.175781 143.34375 C 204.175781 142.78125 204.292969 140.257812 204.09375 139.980469 L 200.734375 139.980469 C 200.574219 140.257812 200.691406 142.78125 200.691406 143.34375 C 200.691406 143.902344 200.574219 146.425781 200.734375 146.703125 L 204.054688 146.703125 C 204.054688 147.226562 203.972656 149.90625 204.132812 150.105469 L 207.496094 150.105469 L 207.496094 153.550781 L 204.132812 153.550781 C 203.972656 153.789062 204.054688 156.472656 204.054688 156.992188 L 200.734375 156.992188 C 200.574219 157.273438 200.691406 159.796875 200.691406 160.355469 C 200.691406 160.917969 200.574219 163.4375 200.734375 163.71875 L 204.09375 163.71875 C 204.292969 163.4375 204.175781 160.917969 204.175781 160.355469 C 204.175781 159.234375 204.175781 158.113281 204.175781 156.992188 L 207.535156 156.992188 L 207.535156 153.550781 L 210.898438 153.550781 L 210.898438 156.992188 L 214.257812 156.992188 C 214.257812 158.113281 214.257812 159.273438 214.257812 160.394531 C 214.257812 160.835938 214.179688 163.597656 214.339844 163.71875 L 217.699219 163.71875 C 217.859375 163.4375 217.742188 160.917969 217.742188 160.355469 C 217.742188 159.796875 217.859375 157.273438 217.699219 156.992188 Z M 220.863281 163.71875 L 237.789062 163.71875 C 237.992188 163.4375 237.871094 162.398438 237.871094 161.996094 C 237.871094 161.597656 237.992188 160.554688 237.789062 160.277344 L 224.304688 160.277344 L 224.304688 153.550781 L 230.945312 153.550781 L 231.027344 153.589844 L 231.027344 150.148438 L 224.304688 150.148438 L 224.304688 143.382812 L 237.789062 143.382812 C 237.992188 143.140625 237.871094 142.0625 237.871094 141.699219 C 237.871094 141.300781 237.992188 140.21875 237.789062 139.980469 L 220.863281 139.980469 C 220.78125 140.140625 220.820312 140.097656 220.820312 140.339844 L 220.820312 151.828125 C 220.820312 155.511719 220.742188 159.753906 220.78125 163.398438 C 220.820312 163.636719 220.78125 163.558594 220.863281 163.71875 Z M 133.980469 163.71875 L 150.910156 163.71875 C 151.070312 163.4375 150.949219 162.398438 150.949219 161.996094 C 150.949219 161.597656 151.070312 160.554688 150.910156 160.277344 L 137.382812 160.277344 L 137.382812 153.550781 L 144.066406 153.550781 L 144.105469 153.589844 L 144.105469 150.148438 L 137.382812 150.148438 L 137.382812 143.382812 L 150.910156 143.382812 C 151.070312 143.140625 150.949219 142.0625 150.949219 141.699219 C 150.949219 141.300781 151.070312 140.21875 150.910156 139.980469 L 133.980469 139.980469 C 133.859375 140.140625 133.902344 140.097656 133.902344 140.339844 L 133.902344 160.835938 C 133.902344 161.117188 133.820312 163.476562 133.980469 163.71875 Z M 113.851562 163.71875 L 117.214844 163.71875 C 117.375 163.476562 117.253906 161.675781 117.253906 161.195312 C 117.253906 160.355469 117.253906 159.476562 117.253906 158.632812 C 117.253906 156.953125 117.253906 155.230469 117.253906 153.550781 L 127.335938 153.550781 C 127.335938 155.273438 127.335938 156.992188 127.335938 158.714844 C 127.335938 159.273438 127.21875 163.597656 127.417969 163.71875 L 130.78125 163.71875 C 130.859375 163.558594 130.859375 163.558594 130.859375 163.359375 L 130.859375 140.660156 C 130.859375 140.539062 130.859375 140.378906 130.859375 140.257812 C 130.859375 140.058594 130.859375 140.097656 130.78125 139.980469 L 127.417969 139.980469 C 127.21875 140.097656 127.335938 144.421875 127.335938 144.984375 C 127.335938 146.703125 127.335938 148.425781 127.335938 150.148438 L 117.253906 150.148438 C 117.253906 148.425781 117.253906 146.746094 117.253906 145.0625 C 117.253906 144.183594 117.253906 143.34375 117.253906 142.5 C 117.253906 142.019531 117.375 140.21875 117.214844 139.980469 L 113.851562 139.980469 C 113.730469 140.140625 113.769531 140.097656 113.769531 140.339844 L 113.769531 160.835938 C 113.769531 161.117188 113.691406 163.476562 113.851562 163.71875 Z M 167.355469 163.71875 L 170.71875 163.71875 C 170.878906 163.476562 170.796875 161.675781 170.796875 161.195312 C 170.796875 160.355469 170.796875 159.476562 170.796875 158.632812 C 170.796875 156.953125 170.796875 155.230469 170.796875 153.550781 L 180.882812 153.550781 C 181.042969 153.269531 180.921875 150.707031 180.921875 150.148438 L 184.285156 150.148438 C 184.484375 149.828125 184.363281 147.304688 184.363281 146.785156 C 184.363281 146.222656 184.484375 143.703125 184.285156 143.382812 L 180.921875 143.421875 C 180.921875 142.863281 181.042969 140.257812 180.882812 139.980469 L 167.355469 139.980469 C 167.277344 140.140625 167.277344 140.097656 167.277344 140.339844 L 167.277344 160.835938 C 167.277344 161.117188 167.195312 163.476562 167.355469 163.71875 Z M 180.882812 150.148438 L 170.796875 150.148438 L 170.796875 143.382812 L 180.882812 143.421875 Z M 240.992188 163.71875 L 257.917969 163.71875 C 258.078125 163.4375 258 162.398438 258 161.996094 C 258 161.597656 258.078125 160.554688 257.917969 160.277344 L 244.394531 160.277344 L 244.394531 141.140625 C 244.394531 140.941406 244.394531 140.738281 244.394531 140.539062 C 244.433594 140.140625 244.472656 140.140625 244.351562 139.980469 L 240.992188 139.980469 C 240.910156 140.140625 240.910156 140.097656 240.910156 140.339844 L 240.910156 160.835938 C 240.910156 161.117188 240.832031 163.476562 240.992188 163.71875 Z M 93.722656 143.382812 L 100.445312 143.382812 L 100.445312 163.519531 C 100.445312 163.796875 100.445312 163.636719 100.523438 163.71875 L 103.804688 163.71875 L 103.886719 163.757812 L 103.886719 143.382812 L 110.648438 143.382812 C 110.808594 143.140625 110.730469 142.0625 110.730469 141.699219 C 110.730469 141.300781 110.808594 140.21875 110.648438 139.980469 L 93.722656 139.980469 C 93.5625 140.21875 93.640625 141.300781 93.640625 141.699219 C 93.640625 142.0625 93.5625 143.140625 93.722656 143.382812 Z M 187.488281 143.421875 L 190.808594 143.382812 L 190.808594 160.277344 L 187.488281 160.277344 C 187.328125 160.554688 187.40625 161.597656 187.40625 161.996094 C 187.40625 162.398438 187.328125 163.4375 187.488281 163.71875 L 197.570312 163.71875 L 197.609375 163.757812 L 197.609375 160.316406 L 197.570312 160.277344 L 194.25 160.277344 L 194.25 143.382812 L 197.570312 143.382812 L 197.609375 143.421875 L 197.609375 140.019531 L 197.570312 139.980469 L 187.488281 139.980469 C 187.328125 140.257812 187.40625 141.300781 187.40625 141.699219 C 187.40625 142.101562 187.328125 143.140625 187.488281 143.421875 Z M 187.488281 143.421875 " fill-opacity="1" fill-rule="evenodd"/><g clip-path="url(#503e0c64a8)"><path fill="#434242" d="M 15.644531 236.9375 L 71.109375 236.9375 L 71.109375 232.652344 L 19.925781 232.652344 L 19.925781 185.695312 L 15.644531 185.695312 Z M 15.644531 236.9375 " fill-opacity="1" fill-rule="evenodd"/></g><g clip-path="url(#d3aaeb6952)"><path stroke-linecap="butt" transform="matrix(0.040019, 0, 0, 0.0400323, 15.524654, 138.057663)" fill="none" stroke-linejoin="miter" d="M 2.995512 2469.998779 L 1388.957677 2469.998779 L 1388.957677 2362.956423 L 109.9759 2362.956423 L 109.9759 1189.979067 L 2.995512 1189.979067 Z M 2.995512 2469.998779 " stroke="#2b2a29" stroke-width="6.206" stroke-opacity="1" stroke-miterlimit="4"/></g><g clip-path="url(#9d6b5e79cd)"><path stroke-linecap="butt" transform="matrix(0.040019, 0, 0, 0.0400323, 15.524654, 138.057663)" fill-opacity="1" fill="#434242" fill-rule="evenodd" stroke-linejoin="miter" d="M 8599.006364 30.955272 L 7320.024587 30.955272 L 7320.024587 129.020512 L 8501.006082 129.020512 L 8501.006082 1212.031549 L 8599.006364 1212.031549 Z M 8599.006364 30.955272 " stroke="#2b2a29" stroke-width="6.206" stroke-opacity="1" stroke-miterlimit="4"/></g><path fill="#194a26" d="M 69.351562 153.269531 L 32.050781 153.269531 L 32.050781 225.527344 L 49.859375 225.527344 L 49.859375 204.390625 L 69.351562 204.390625 C 83.277344 204.390625 94.800781 193.941406 94.800781 178.730469 C 94.800781 164.078125 83.597656 153.269531 69.351562 153.269531 Z M 49.859375 187.578125 L 49.859375 170.523438 L 67.75 170.523438 C 72.390625 170.523438 76.671875 173.765625 76.671875 178.851562 C 76.671875 184.335938 72.472656 187.578125 67.75 187.578125 Z M 138.0625 178.210938 L 137.621094 178.210938 C 134.382812 173.566406 128.457031 170.003906 121.015625 170.003906 C 106.246094 170.003906 96.082031 182.171875 96.082031 198.785156 C 96.082031 215.839844 106.886719 227.167969 121.015625 227.167969 C 128.457031 227.167969 134.382812 223.605469 137.621094 218.964844 L 138.0625 218.964844 L 138.0625 225.527344 L 154.628906 225.527344 L 154.628906 171.726562 L 138.0625 171.726562 Z M 125.535156 211.398438 C 118.414062 211.398438 113.011719 206.113281 113.011719 198.585938 C 113.011719 191.019531 118.414062 185.734375 125.535156 185.734375 C 132.78125 185.734375 138.0625 191.261719 138.0625 198.585938 C 138.0625 205.59375 132.980469 211.398438 125.535156 211.398438 Z M 195.929688 170.125 C 189.925781 170.125 184.203125 172.804688 180.644531 177.769531 L 180.203125 177.769531 L 180.203125 171.726562 L 163.914062 171.726562 L 163.914062 225.527344 L 180.644531 225.527344 L 180.644531 197.066406 C 180.644531 190.378906 185.804688 186.617188 190.769531 186.617188 C 195.210938 186.617188 199.8125 189.621094 199.8125 196.542969 L 199.8125 225.527344 L 216.539062 225.527344 L 216.539062 194.261719 C 216.539062 178.53125 208.777344 170.125 195.929688 170.125 Z M 195.929688 170.125 " fill-opacity="1" fill-rule="nonzero"/><path fill="#434242" d="M 263.441406 178.210938 L 263.003906 178.210938 C 259.761719 173.566406 253.839844 170.003906 246.394531 170.003906 C 232.269531 170.003906 221.503906 181.332031 221.503906 198.347656 C 221.503906 214.960938 231.628906 227.167969 246.394531 227.167969 C 253.839844 227.167969 259.761719 223.605469 263.003906 218.964844 L 263.441406 218.964844 L 263.441406 225.527344 L 280.050781 225.527344 L 280.050781 147.90625 L 263.441406 147.90625 Z M 238.429688 198.585938 C 238.429688 191.019531 243.832031 185.734375 250.917969 185.734375 C 258.359375 185.734375 263.441406 191.582031 263.441406 198.585938 C 263.441406 205.914062 258.160156 211.398438 250.917969 211.398438 C 243.832031 211.398438 238.429688 206.113281 238.429688 198.585938 Z M 327.914062 178.210938 L 327.472656 178.210938 C 324.269531 173.566406 318.308594 170.003906 310.90625 170.003906 C 296.097656 170.003906 285.972656 182.171875 285.972656 198.785156 C 285.972656 215.839844 296.777344 227.167969 310.90625 227.167969 C 318.308594 227.167969 324.269531 223.605469 327.472656 218.964844 L 327.914062 218.964844 L 327.914062 225.527344 L 344.519531 225.527344 L 344.519531 171.726562 L 327.914062 171.726562 Z M 315.425781 211.398438 C 308.304688 211.398438 302.902344 206.113281 302.902344 198.585938 C 302.902344 191.019531 308.304688 185.734375 315.425781 185.734375 C 322.628906 185.734375 327.914062 191.261719 327.914062 198.585938 C 327.914062 205.59375 322.871094 211.398438 315.425781 211.398438 Z M 315.425781 211.398438 " fill-opacity="1" fill-rule="nonzero"/><g clip-path="url(#befa2591a6)"><path fill="#2b2a29" d="M 56.34375 148.1875 C 56.625 147.464844 57.703125 147.105469 58.226562 147.90625 L 58.664062 147.945312 L 58.746094 148.464844 C 59.023438 148.90625 59.023438 149.066406 58.625 149.347656 L 58.664062 149.90625 C 58.105469 150.265625 57.464844 150.507812 56.945312 150.105469 L 56.503906 150.066406 L 56.503906 149.789062 C 56.265625 149.628906 56.0625 149.507812 55.984375 149.027344 C 55.945312 148.507812 56.023438 148.464844 56.34375 148.1875 Z M 47.257812 147.824219 C 47.019531 148.546875 46.78125 149.308594 47.5 149.746094 C 48.460938 150.347656 48.699219 149.667969 49.339844 149.226562 C 48.859375 150.789062 46.980469 150.1875 46.660156 149.265625 L 46.621094 148.1875 C 47.578125 147.464844 48.21875 146.664062 49.339844 148.105469 C 48.902344 148.546875 48.941406 148.507812 48.421875 148.347656 L 48.21875 147.585938 Z M 45.21875 153.148438 L 42.976562 153.191406 C 42.699219 152.667969 42.496094 151.828125 42.097656 151.308594 C 41.496094 150.585938 40.9375 150.507812 40.457031 150.027344 C 40.496094 146.90625 42.257812 144.0625 44.257812 142.140625 C 46.621094 139.859375 49.261719 139.097656 52.902344 139.136719 C 56.34375 139.179688 59.066406 139.898438 61.347656 142.339844 C 63.226562 144.300781 65.347656 147.34375 65.066406 150.386719 C 64.109375 151.148438 63.066406 151.109375 62.628906 153.429688 L 60.1875 153.390625 C 60.625 152.789062 63.1875 151.667969 62.1875 149.265625 C 59.34375 142.382812 51.179688 146.746094 57.34375 153.351562 L 53.863281 153.308594 C 56.222656 150.867188 51.621094 150.789062 51.023438 151.707031 C 50.742188 152.710938 51.140625 152.550781 51.5 153.269531 L 48.140625 153.230469 C 48.621094 152.550781 50.421875 151.148438 50.460938 148.828125 C 50.582031 144.542969 45.21875 144.78125 43.496094 148.625 C 42.21875 151.46875 44.699219 152.550781 45.21875 153.148438 Z M 32.09375 153.03125 L 32.09375 154.511719 L 35.496094 154.550781 C 36.292969 155.710938 36.496094 156.3125 39.054688 156.433594 C 40.65625 156.472656 41.816406 156.113281 42.65625 154.710938 L 62.828125 154.953125 C 63.308594 157.152344 67.230469 157.03125 68.511719 156.390625 C 70.75 155.152344 68.148438 154.992188 72.273438 155.070312 L 72.273438 153.589844 L 70.070312 153.46875 C 69.191406 151.347656 68.589844 150.347656 65.828125 150.1875 C 65.75 149.507812 65.75 148.585938 65.546875 147.984375 C 65.308594 147.34375 65.109375 146.824219 64.988281 146.105469 C 67.628906 144.460938 67.75 142.179688 65.707031 139.9375 C 64.90625 139.058594 63.828125 138.257812 62.425781 138.335938 C 60.707031 138.417969 60.144531 139.457031 59.425781 140.140625 C 59.105469 139.699219 57.183594 139.21875 56.542969 139.097656 C 53.382812 138.457031 49.300781 138.335938 46.417969 139.898438 C 45.417969 139.097656 44.898438 138.058594 43.21875 138.058594 C 42.058594 138.058594 40.496094 138.9375 39.855469 139.738281 C 36.734375 143.542969 39.894531 145.0625 40.65625 145.945312 C 40.257812 147.386719 39.695312 148.1875 39.617188 149.867188 C 38.457031 149.828125 37.695312 150.066406 36.773438 150.707031 C 35.894531 151.347656 35.734375 151.988281 35.496094 153.070312 Z M 32.09375 153.03125 " fill-opacity="1" fill-rule="evenodd"/></g><path fill="#fefefe" d="M 47.859375 147.105469 C 47.058594 147.105469 46.339844 147.785156 46.339844 148.667969 C 46.339844 149.546875 46.980469 150.308594 47.820312 150.308594 C 48.660156 150.308594 49.378906 149.628906 49.378906 148.707031 C 49.378906 147.824219 48.699219 147.105469 47.859375 147.105469 Z M 47.859375 147.105469 " fill-opacity="1" fill-rule="evenodd"/><path fill="#2b2a29" d="M 47.859375 147.265625 C 47.140625 147.265625 46.5 147.90625 46.5 148.667969 C 46.5 149.46875 47.101562 150.105469 47.820312 150.148438 C 48.582031 150.148438 49.21875 149.507812 49.21875 148.707031 C 49.21875 147.945312 48.621094 147.304688 47.859375 147.265625 Z M 47.859375 147.265625 " fill-opacity="1" fill-rule="evenodd"/><path fill="#fefefe" d="M 55.984375 148.066406 C 55.582031 148.785156 55.863281 149.746094 56.625 150.1875 C 57.382812 150.628906 58.34375 150.425781 58.746094 149.707031 C 59.183594 148.988281 58.90625 148.027344 58.144531 147.585938 C 57.382812 147.144531 56.425781 147.34375 55.984375 148.066406 Z M 55.984375 148.066406 " fill-opacity="1" fill-rule="evenodd"/><path fill="#fefefe" d="M 48.179688 147.585938 C 48.5 147.585938 48.699219 147.824219 48.699219 148.105469 C 48.699219 148.386719 48.460938 148.585938 48.179688 148.585938 C 47.898438 148.585938 47.660156 148.347656 47.660156 148.066406 C 47.660156 147.824219 47.898438 147.585938 48.179688 147.585938 Z M 48.179688 147.585938 " fill-opacity="1" fill-rule="evenodd"/><path fill="#2b2a29" d="M 56.0625 148.304688 C 55.785156 148.988281 56.105469 149.828125 56.824219 150.148438 C 57.542969 150.425781 58.386719 150.148438 58.664062 149.46875 C 58.984375 148.785156 58.625 147.945312 57.90625 147.625 C 57.183594 147.34375 56.382812 147.625 56.0625 148.304688 Z M 56.0625 148.304688 " fill-opacity="1" fill-rule="evenodd"/><path fill="#fefefe" d="M 56.464844 148.144531 C 56.585938 147.867188 56.90625 147.746094 57.144531 147.867188 C 57.382812 147.984375 57.503906 148.265625 57.382812 148.546875 C 57.265625 148.785156 56.984375 148.90625 56.746094 148.828125 C 56.464844 148.707031 56.382812 148.386719 56.464844 148.144531 Z M 56.464844 148.144531 " fill-opacity="1" fill-rule="evenodd"/></svg>