<svg width="24" height="24" viewBox="0 0 24 24" fill="none" xmlns="http://www.w3.org/2000/svg">
<path d="M23.1921 6.4635C23.1353 6.32645 23.0392 6.2093 22.9159 6.12686C22.7926 6.04443 22.6476 6.00041 22.4993 6.00038H19.6465C19.2476 5.3218 18.6799 4.75796 17.9987 4.3637C17.3174 3.96943 16.5457 3.75814 15.7586 3.75038C15.1723 3.74269 14.5902 3.85235 14.0469 4.07293C13.5035 4.2935 13.0097 4.62052 12.5946 5.03475C12.1673 5.45402 11.8282 5.95449 11.5972 6.50671C11.3662 7.05893 11.2479 7.65178 11.2493 8.25038V8.82132C7.47489 7.82569 4.3877 4.75538 4.35489 4.72257C4.25427 4.62105 4.12674 4.55041 3.98731 4.51895C3.84789 4.48749 3.70238 4.49652 3.56792 4.54499C3.43345 4.59345 3.31564 4.67933 3.22835 4.79251C3.14106 4.90569 3.08792 5.04145 3.0752 5.18382C2.67114 9.66413 3.97239 12.6623 5.1377 14.3882C5.7059 15.2414 6.39713 16.0059 7.18895 16.6569C5.76114 18.3004 3.51302 19.1638 3.48864 19.1732C3.38281 19.2128 3.28731 19.2759 3.20926 19.3576C3.13122 19.4393 3.07266 19.5377 3.03795 19.6452C3.00324 19.7528 2.99329 19.8668 3.00883 19.9787C3.02437 20.0906 3.06501 20.1976 3.1277 20.2916C3.19802 20.3966 3.47927 20.7651 4.16645 21.1091C5.01583 21.5348 6.13802 21.7504 7.49927 21.7504C14.1246 21.7504 19.6605 16.6485 20.2258 10.0841L23.0299 7.281C23.1347 7.17606 23.2061 7.04237 23.235 6.89686C23.2639 6.75134 23.2489 6.60053 23.1921 6.4635ZM18.9733 9.22069C18.8447 9.34959 18.7674 9.52086 18.7558 9.70257C18.3743 15.6173 13.4318 20.2504 7.49927 20.2504C6.50927 20.2504 5.81177 20.1191 5.32239 19.9616C6.40145 19.3757 7.90614 18.3679 8.87364 16.9166C8.93043 16.8313 8.96912 16.7352 8.98732 16.6344C9.00553 16.5335 9.00287 16.4299 8.9795 16.3301C8.95613 16.2303 8.91255 16.1364 8.85145 16.0541C8.79035 15.9718 8.71303 15.9029 8.62427 15.8516C8.5802 15.8263 4.5077 13.3823 4.49927 6.85163C5.99927 8.07038 8.74145 9.96132 11.8746 10.4882C11.982 10.5063 12.092 10.5008 12.197 10.4721C12.3021 10.4434 12.3996 10.3921 12.4828 10.3219C12.5661 10.2517 12.633 10.1642 12.679 10.0655C12.725 9.96681 12.749 9.85927 12.7493 9.75038V8.25038C12.7484 7.8503 12.8276 7.45409 12.9822 7.08508C13.1367 6.71606 13.3636 6.38168 13.6493 6.10163C13.9232 5.82722 14.2493 5.6105 14.6084 5.46429C14.9675 5.31808 15.3522 5.24535 15.7399 5.25038C16.9268 5.26538 18.0358 5.98913 18.4999 7.05132C18.5584 7.18486 18.6545 7.29846 18.7766 7.37821C18.8986 7.45797 19.0413 7.50042 19.1871 7.50038H20.6871L18.9733 9.22069Z" fill="#FB5770"/>
</svg>
